# xmcd
#
# Track frame offsets: 
#        206
#        12776
#        29359
#        46913
#        67750
#        91856
#        111661
#        130574
#        151195
#        170288
#        182794
#        201268
#        214810
#
# Disc length: 3053 seconds
#
# Revision: 0
# Processed by: cddbd v1.5.2PL0 Copyright (c) Steve Scherf et al.
# Submitted via: ExactAudioCopy v0.99pb4
#
DISCID=a40beb0d
DTITLE=Lefty Dizz - Shake For Me
DYEAR=2002
DGENRE=Blues
TTITLE0=R.M. Blues
TTITLE1=Blue Shadows take 2
TTITLE2=Take Out Some Insurance
TTITLE3=Cummins Prison Farm
TTITLE4=I Found Out
TTITLE5=Shake For Me*
TTITLE6=Funny Acting Woman*
TTITLE7=The Things I Used To Do
TTITLE8=Blue Shadows* take 1
TTITLE9=Moose Boogie
TTITLE10=One Eyed Woman
TTITLE11=All Right, Ok, You Win
TTITLE12=Lake Shore Drive Boogie
EXTD=
EXTT0=
EXTT1=
EXTT2=
EXTT3=
EXTT4=
EXTT5=
EXTT6=
EXTT7=
EXTT8=
EXTT9=
EXTT10=
EXTT11=
EXTT12=
PLAYORDER=
